# xmcd
#
# Track frame offsets:
#	150
#	8076
#	26409
#	49180
#	68838
#	84825
#	101443
#	116203
#	134157
#	154318
#	172851
#	192722
#	218018
#	238271
#
# Disc length: 3444 seconds
#
# Revision: 0
# Processed by: cddbd v1.5.2PL0 Copyright (c) Steve Scherf et al.
# Submitted via: EasyCDDAExtractor 12.0.1.1
#
DISCID=c00d720e
DTITLE=2Pac - Until the End of Time [CD2]
DYEAR=2001
DGENRE=Rap
TTITLE0=Big Syke (interlude)
TTITLE1=My Closest Roaddogz
TTITLE2=Niggaz Nature (remix) (feat. Lil Mo)
TTITLE3=When Thugz Cry
TTITLE4=U Don't Have 2 Worry (feat. Outlawz)
TTITLE5=This Ain't Livin
TTITLE6=Why U Turn on Me
TTITLE7=Last One Left (feat. Outlawz)
TTITLE8=Thug n U Thug n Me (feat. KC and Jo Jo)
TTITLE9=Words 2 My First Born
TTITLE10=Let Em Have It (remix) (feat. Left Eye)
TTITLE11=Running on E (feat. Outlawz)
TTITLE12=When I Get Free (feat. J. Valentine)
TTITLE13=Until the End of Time (remix) (feat. Richard Page)
EXTD=
EXTT0=
EXTT1=
EXTT2=
EXTT3=
EXTT4=
EXTT5=
EXTT6=
EXTT7=
EXTT8=
EXTT9=
EXTT10=
EXTT11=
EXTT12=
EXTT13=
PLAYORDER=
